<svg id="Layer_1" data-name="Layer 1" xmlns="http://www.w3.org/2000/svg" width="267.5" height="32" viewBox="0 0 267.5 32"><defs><style>.cls-1{fill:#1c364a;}</style></defs><title>logo-blue</title><path class="cls-1" d="M122.91,6.3A8.32,8.32,0,0,1,127,8.67a9.91,9.91,0,0,1,2.55,7.14,10.48,10.48,0,0,1-2.57,7.4,8.35,8.35,0,0,1-4.18,2.49h9.27V6.3Z"/><polygon class="cls-1" points="138.03 18.28 138.03 25.7 142.74 25.7 139.91 18.28 138.03 18.28"/><path class="cls-1" d="M120.44,10.41c-2,0-2.93,1.92-2.93,5.77q0,5.41,2.81,5.41a2.24,2.24,0,0,0,2.17-1.31,12,12,0,0,0,.66-4.81C123.15,12.09,122.25,10.41,120.44,10.41Z"/><path class="cls-1" d="M111.1,16a10.56,10.56,0,0,1,2.46-7.18,7.92,7.92,0,0,1,4.25-2.54h-15a8.36,8.36,0,0,1,4.1,2.37,9.91,9.91,0,0,1,2.55,7.14,10.44,10.44,0,0,1-2.58,7.4,8.32,8.32,0,0,1-4.17,2.49h15.14a8.39,8.39,0,0,1-4.16-2.42A10.1,10.1,0,0,1,111.1,16Z"/><path class="cls-1" d="M142.24,6.3a7.8,7.8,0,0,1,5.18,1.57A5.16,5.16,0,0,1,149.28,12a6.2,6.2,0,0,1-.69,3,5.72,5.72,0,0,1-2.75,2.26l3.51,8.46h2.81V6.3Z"/><rect class="cls-1" x="158.12" y="6.3" width="3.38" height="19.4"/><path class="cls-1" d="M100.32,10.41q-2.92,0-2.93,5.77,0,5.41,2.82,5.41a2.26,2.26,0,0,0,2.17-1.31,12,12,0,0,0,.66-4.81C103,12.09,102.13,10.41,100.32,10.41Z"/><path class="cls-1" d="M140.78,10.42H138v3.71h2.55a3.12,3.12,0,0,0,1.8-.47,1.55,1.55,0,0,0,.68-1.38Q143.06,10.42,140.78,10.42Z"/><path class="cls-1" d="M173.7,17.13a27.62,27.62,0,0,1-.46-5.09V6.3h-6.11l4.52,7.11A28.11,28.11,0,0,1,173.7,17.13Z"/><path class="cls-1" d="M165.87,13.12a13.56,13.56,0,0,1,.46,3.19V25.7h6.91l-5.31-8.57A32.78,32.78,0,0,1,165.87,13.12Z"/><rect class="cls-1" x="22.4" y="6.3" width="4.55" height="7.13"/><polygon class="cls-1" points="14.75 6.3 14.75 10.95 10.73 10.95 10.73 25.7 16.44 25.7 16.44 6.3 14.75 6.3"/><polygon class="cls-1" points="1.06 10.95 1.06 6.3 -0.11 6.3 -0.11 25.7 5.08 25.7 5.08 10.95 1.06 10.95"/><rect class="cls-1" x="32.9" y="6.3" width="3.37" height="19.4"/><rect class="cls-1" x="22.4" y="18.15" width="4.55" height="7.55"/><polygon class="cls-1" points="74.54 6.3 74.54 10.92 66.31 10.92 66.31 14.07 72.63 14.07 72.63 18.44 66.31 18.44 66.31 25.7 76.43 25.7 76.43 6.3 74.54 6.3"/><polygon class="cls-1" points="50.87 6.3 50.87 10.78 42.11 10.78 42.11 13.59 49.19 13.59 49.19 17.9 42.11 17.9 42.11 21.07 50.87 21.07 50.87 25.7 60.51 25.7 60.51 6.3 50.87 6.3"/><path class="cls-1" d="M91,16a10.51,10.51,0,0,1,2.47-7.18A7.92,7.92,0,0,1,97.7,6.3H82.38V20.94H90V25.7h7.7a8.42,8.42,0,0,1-4.17-2.42A10.1,10.1,0,0,1,91,16Z"/><path class="cls-1" d="M192.4,6.3a7.44,7.44,0,0,1,3.09,1.46,8.35,8.35,0,0,1,2.74,5l-5.77.56c-.28-2-1.17-3-2.66-3-2,0-2.93,1.85-2.93,5.57,0,2.25.32,3.73.94,4.44a2.92,2.92,0,0,0,2.28,1.07,2.71,2.71,0,0,0,1.84-.65A2.3,2.3,0,0,0,192.7,19h-3.21V14.83h8.74V25.7h8.83l6-19.4Z"/><path class="cls-1" d="M267.61,6.3H254.27a12.06,12.06,0,0,1,4.67.71,5.74,5.74,0,0,1,2.55,2.17,5.94,5.94,0,0,1,.95,3.29A5.72,5.72,0,0,1,260.51,17a7.55,7.55,0,0,1-5.16,1.7H252V25.7h15.63Z"/><polygon class="cls-1" points="213.06 21.88 211.89 25.7 219.35 25.7 218.25 21.88 213.06 21.88"/><polygon class="cls-1" points="219.34 6.3 225.43 25.7 227.22 25.7 227.22 6.3 219.34 6.3"/><polygon class="cls-1" points="214.07 17.64 217.21 17.64 215.64 12.01 214.07 17.64"/><path class="cls-1" d="M256.51,12.55c0-1.21-.81-1.82-2.43-1.82h-2.19v3.76h2C255.64,14.49,256.51,13.84,256.51,12.55Z"/><path class="cls-1" d="M180.61,16.28A11.51,11.51,0,0,1,182.94,9a7.51,7.51,0,0,1,4.31-2.66h-9.16V25.7h8.75A7.9,7.9,0,0,1,183,23.38,10.08,10.08,0,0,1,180.61,16.28Z"/><path class="cls-1" d="M235.55,6.3a12,12,0,0,1,4.66.71,5.71,5.71,0,0,1,2.56,2.17,5.94,5.94,0,0,1,.95,3.29A5.72,5.72,0,0,1,241.79,17a7.55,7.55,0,0,1-5.16,1.7h-3.37V25.7h12.68V6.3Z"/><path class="cls-1" d="M237.79,12.55c0-1.21-.81-1.82-2.43-1.82h-2.19v3.76h2C236.91,14.49,237.79,13.84,237.79,12.55Z"/></svg>