<svg id="Layer_1" data-name="Layer 1" xmlns="http://www.w3.org/2000/svg" width="267.5" height="32" viewBox="0 0 267.5 32"><defs><style>.cls-1{fill:#fff;}</style></defs><title>logo-white</title><path class="cls-1" d="M123,6.3a8.32,8.32,0,0,1,4.1,2.37,9.91,9.91,0,0,1,2.55,7.14,10.48,10.48,0,0,1-2.57,7.4,8.35,8.35,0,0,1-4.18,2.49h9.27V6.3Z"/><polygon class="cls-1" points="138.14 18.28 138.14 25.7 142.85 25.7 140.02 18.28 138.14 18.28"/><path class="cls-1" d="M120.55,10.41c-2,0-2.93,1.92-2.93,5.77q0,5.41,2.81,5.41a2.24,2.24,0,0,0,2.17-1.31,12,12,0,0,0,.66-4.81C123.26,12.09,122.36,10.41,120.55,10.41Z"/><path class="cls-1" d="M111.21,16a10.56,10.56,0,0,1,2.46-7.18,7.92,7.92,0,0,1,4.25-2.54h-15A8.36,8.36,0,0,1,107,8.67a9.91,9.91,0,0,1,2.55,7.14,10.44,10.44,0,0,1-2.58,7.4,8.32,8.32,0,0,1-4.17,2.49H118a8.39,8.39,0,0,1-4.16-2.42A10.1,10.1,0,0,1,111.21,16Z"/><path class="cls-1" d="M142.35,6.3a7.8,7.8,0,0,1,5.18,1.57A5.16,5.16,0,0,1,149.39,12a6.2,6.2,0,0,1-.69,3A5.72,5.72,0,0,1,146,17.24l3.51,8.46h2.81V6.3Z"/><rect class="cls-1" x="158.23" y="6.3" width="3.38" height="19.4"/><path class="cls-1" d="M100.43,10.41q-2.93,0-2.93,5.77,0,5.41,2.82,5.41a2.26,2.26,0,0,0,2.17-1.31,12,12,0,0,0,.66-4.81C103.15,12.09,102.24,10.41,100.43,10.41Z"/><path class="cls-1" d="M140.89,10.42h-2.75v3.71h2.55a3.12,3.12,0,0,0,1.8-.47,1.55,1.55,0,0,0,.68-1.38Q143.17,10.42,140.89,10.42Z"/><path class="cls-1" d="M173.81,17.13a27.62,27.62,0,0,1-.46-5.09V6.3h-6.11l4.52,7.11A28.11,28.11,0,0,1,173.81,17.13Z"/><path class="cls-1" d="M166,13.12a13.56,13.56,0,0,1,.46,3.19V25.7h6.91L168,17.13A32.78,32.78,0,0,1,166,13.12Z"/><rect class="cls-1" x="22.51" y="6.3" width="4.55" height="7.13"/><polygon class="cls-1" points="14.86 6.3 14.86 10.95 10.84 10.95 10.84 25.7 16.55 25.7 16.55 6.3 14.86 6.3"/><polygon class="cls-1" points="1.17 10.95 1.17 6.3 0 6.3 0 25.7 5.19 25.7 5.19 10.95 1.17 10.95"/><rect class="cls-1" x="33.01" y="6.3" width="3.37" height="19.4"/><rect class="cls-1" x="22.51" y="18.15" width="4.55" height="7.55"/><polygon class="cls-1" points="74.65 6.3 74.65 10.92 66.42 10.92 66.42 14.07 72.74 14.07 72.74 18.44 66.42 18.44 66.42 25.7 76.54 25.7 76.54 6.3 74.65 6.3"/><polygon class="cls-1" points="50.98 6.3 50.98 10.78 42.22 10.78 42.22 13.59 49.3 13.59 49.3 17.9 42.22 17.9 42.22 21.07 50.98 21.07 50.98 25.7 60.62 25.7 60.62 6.3 50.98 6.3"/><path class="cls-1" d="M91.09,16a10.51,10.51,0,0,1,2.47-7.18A7.92,7.92,0,0,1,97.81,6.3H82.49V20.94h7.65V25.7h7.7a8.42,8.42,0,0,1-4.17-2.42A10.1,10.1,0,0,1,91.09,16Z"/><path class="cls-1" d="M192.51,6.3a7.44,7.44,0,0,1,3.09,1.46,8.35,8.35,0,0,1,2.74,5l-5.77.56c-.28-2-1.17-3-2.66-3-1.95,0-2.93,1.85-2.93,5.57,0,2.25.32,3.73.94,4.44a2.92,2.92,0,0,0,2.28,1.07,2.71,2.71,0,0,0,1.84-.65,2.3,2.3,0,0,0,.77-1.79H189.6V14.83h8.74V25.7h8.83l6-19.4Z"/><path class="cls-1" d="M267.72,6.3H254.38a12.06,12.06,0,0,1,4.67.71,5.74,5.74,0,0,1,2.55,2.17,5.94,5.94,0,0,1,.95,3.29A5.72,5.72,0,0,1,260.62,17a7.55,7.55,0,0,1-5.16,1.7h-3.37V25.7h15.63Z"/><polygon class="cls-1" points="213.17 21.88 212 25.7 219.46 25.7 218.36 21.88 213.17 21.88"/><polygon class="cls-1" points="219.45 6.3 225.54 25.7 227.33 25.7 227.33 6.3 219.45 6.3"/><polygon class="cls-1" points="214.18 17.64 217.32 17.64 215.75 12.01 214.18 17.64"/><path class="cls-1" d="M256.62,12.55c0-1.21-.81-1.82-2.43-1.82H252v3.76h2C255.75,14.49,256.62,13.84,256.62,12.55Z"/><path class="cls-1" d="M180.72,16.28A11.51,11.51,0,0,1,183.05,9a7.51,7.51,0,0,1,4.31-2.66H178.2V25.7H187a7.9,7.9,0,0,1-3.82-2.32A10.08,10.08,0,0,1,180.72,16.28Z"/><path class="cls-1" d="M235.66,6.3a12,12,0,0,1,4.66.71,5.71,5.71,0,0,1,2.56,2.17,5.94,5.94,0,0,1,1,3.29A5.72,5.72,0,0,1,241.9,17a7.55,7.55,0,0,1-5.16,1.7h-3.37V25.7h12.68V6.3Z"/><path class="cls-1" d="M237.9,12.55c0-1.21-.81-1.82-2.43-1.82h-2.19v3.76h2C237,14.49,237.9,13.84,237.9,12.55Z"/></svg>