<?xml version="1.0" encoding="UTF-8" standalone="no"?>
<svg
   xmlns:dc="http://purl.org/dc/elements/1.1/"
   xmlns:cc="http://creativecommons.org/ns#"
   xmlns:rdf="http://www.w3.org/1999/02/22-rdf-syntax-ns#"
   xmlns:svg="http://www.w3.org/2000/svg"
   xmlns="http://www.w3.org/2000/svg"
   xmlns:sodipodi="http://sodipodi.sourceforge.net/DTD/sodipodi-0.dtd"
   xmlns:inkscape="http://www.inkscape.org/namespaces/inkscape"
   inkscape:version="1.0 (4035a4fb49, 2020-05-01)"
   sodipodi:docname="rooms694.svg"
   id="svg1891"
   version="1.1"
   viewBox="-41.87434, -110.0051, 236.8139, 196.0939"
   height="196.0939"
   width="236.8139">
  <metadata
     id="metadata1897">
    <rdf:RDF>
      <cc:Work
         rdf:about="">
        <dc:format>image/svg+xml</dc:format>
        <dc:type
           rdf:resource="http://purl.org/dc/dcmitype/StillImage" />
      </cc:Work>
    </rdf:RDF>
  </metadata>
  <defs
     id="defs1895" />
  <sodipodi:namedview
     inkscape:current-layer="svg1891"
     inkscape:window-maximized="1"
     inkscape:window-y="-6"
     inkscape:window-x="-6"
     inkscape:cy="166.28007"
     inkscape:cx="171.02263"
     inkscape:zoom="7.2006318"
     showgrid="false"
     id="namedview1893"
     inkscape:window-height="938"
     inkscape:window-width="1500"
     inkscape:pageshadow="2"
     inkscape:pageopacity="0"
     guidetolerance="10"
     gridtolerance="10"
     objecttolerance="10"
     borderopacity="1"
     bordercolor="#666666"
     pagecolor="#ffffff" />
  <g
     id="g1667"
     roomName="Stair 201"
     roomId="214958">
    <path
       id="path1665"
       style="fill:none;stroke:black;"
       stroke-width="0.2"
       d="M184.9396 76.38176 L184.9396 52.544 L176.2781 52.544 L176.2781 76.05368 L176.2781 76.38176 L184.9396 76.38176" />
  </g>
  <g
     id="g1671"
     roomName="Instruction 202"
     roomId="214966">
    <path
       id="path1669"
       style="fill:none;stroke:black;"
       stroke-width="0.2"
       d="M175.622 76.05368 L175.622 52.544 L175.622 51.88783 L175.622 49.44115 L163.3376 49.44115 L163.3376 76.05368 L175.622 76.05368" />
  </g>
  <g
     id="g1675"
     roomName="Computer Lab 203"
     roomId="214968">
    <path
       id="path1673"
       style="fill:none;stroke:black;"
       stroke-width="0.2"
       d="M162.8832 49.44115 L150.2142 49.44115 L150.2142 49.90814 L150.2142 50.61589 L150.2142 73.90814 L150.2142 74.61588 L150.2142 76.05368 L162.8832 76.05368 L162.8832 49.44115" />
  </g>
  <g
     id="g1679"
     roomName="Instruction 204"
     roomId="214970">
    <path
       id="path1677"
       style="fill:none;stroke:black;"
       stroke-width="0.2"
       d="M148.6509 50.26201 A0.492126 0.492126 2.339127 0 1 149.485 49.90814 L149.7598 49.90814 L149.7598 49.44115 L130.5292 49.44115 L130.5292 76.05368 L149.7598 76.05368 L149.7598 74.61588 L149.485 74.61588 A0.492126 0.492126 2.339127 0 1 148.6509 74.26201 A0.492126 0.492126 2.339127 0 1 149.485 73.90814 L149.7598 73.90814 L149.7598 50.61589 L149.485 50.61589 A0.492126 0.492126 2.339127 0 1 148.6509 50.26201" />
  </g>
  <g
     id="g1687"
     roomName="Instruction 205"
     roomId="214977">
    <path
       id="path1681"
       style="fill:none;stroke:black;"
       stroke-width="0.2"
       d="M130.0748 49.44115 L117.4058 49.44115 L117.4058 76.05368 L130.0748 76.05368 L130.0748 49.44115" />
    <path
       id="path1683"
       style="fill:none;stroke:black;"
       stroke-width="0.2"
       d="M127.3176 74.26201 A0.492126 0.492126 3.141593 0 1 128.3018 74.26201 A0.492126 0.492126 3.141593 0 1 127.3176 74.26201" />
    <path
       id="path1685"
       style="fill:none;stroke:black;"
       stroke-width="0.2"
       d="M127.3176 50.26201 A0.492126 0.492126 3.141593 0 1 128.3018 50.26201 A0.492126 0.492126 3.141593 0 1 127.3176 50.26201" />
  </g>
  <g
     id="g1691"
     roomName="Corridor 235"
     roomId="214987">
    <path
       id="path1689"
       style="fill:none;stroke:black;"
       stroke-width="0.2"
       d="M184.9396 51.88783 L184.9396 48.98675 L184.9396 40.7525 L23.76805 40.7525 L23.76805 49.21395 L23.99525 49.21395 L23.99525 56.58189 L29.11828 56.58189 L29.11828 48.98675 L36.1419 48.98675 L36.1419 56.58189 L41.26493 56.58189 L41.26493 50.3601 L41.26493 50.16393 L41.26493 48.98675 L71.24689 48.98675 L90.93192 48.98675 L104.0553 48.98675 L117.1786 48.98675 L130.302 48.98675 L149.987 48.98675 L163.1104 48.98675 L176.2781 48.98675 L176.2781 51.88783 L184.9396 51.88783" />
  </g>
  <g
     id="g1695"
     roomName="Men 210"
     roomId="214989">
    <path
       id="path1693"
       style="fill:none;stroke:black;"
       stroke-width="0.2"
       d="M33.83776 76.05368 L41.26493 76.05368 L41.26493 74.3601 L41.26493 74.16393 L41.26493 57.03629 L35.9147 57.03629 L33.83776 57.03629 L33.83776 76.05368" />
  </g>
  <g
     id="g1699"
     roomName="Women 211"
     roomId="215097">
    <path
       id="path1697"
       style="fill:none;stroke:black;"
       stroke-width="0.2"
       d="M23.99525 76.05368 L31.74295 76.05368 L31.74295 57.03629 L29.34548 57.03629 L23.99525 57.03629 L23.99525 76.05368" />
  </g>
  <g
     id="g1705"
     roomName="Lounge 212"
     roomId="215099">
    <path
       id="path1701"
       style="fill:none;stroke:black;"
       stroke-width="0.2"
       d="M4.770999 76.05368 L23.54085 76.05368 L23.54085 57.03629 L12.41782 57.03629 L12.41782 49.44115 L4.770999 49.44115 L4.770999 51.88783 L4.770999 52.544 L4.770999 76.05368" />
    <path
       id="path1703"
       style="fill:none;stroke:black;"
       stroke-width="0.2"
       d="M21.31759 74.26201 A0.492126 0.492126 3.141593 0 1 22.30184 74.26201 A0.492126 0.492126 3.141593 0 1 21.31759 74.26201" />
  </g>
  <g
     id="g1709"
     roomName="Electrical 214"
     roomId="215101">
    <path
       id="path1707"
       style="fill:none;stroke:black;"
       stroke-width="0.2"
       d="M23.54085 49.44115 L12.87221 49.44115 L12.87221 56.58189 L23.54085 56.58189 L23.54085 49.44115" />
  </g>
  <g
     id="g1735"
     roomName="Lobby 216"
     roomId="215103">
    <path
       id="path1711"
       style="fill:none;stroke:black;"
       stroke-width="0.2"
       d="M-4.748358 48.98675 L-4.546586 48.98675 L-4.546586 51.88783 L4.114831 51.88783 L4.114831 48.98675 L12.64501 48.98675 L23.76805 48.98675 L23.76805 40.7525 L23.50558 40.7525 L23.50558 22.29777 L21.15355 22.29777 L21.15355 21.55958 L23.50558 21.55958 L23.76805 21.55958 L23.76805 2.631105 L23.4829 2.631105 L21.15355 2.631105 L21.15355 1.892916 L23.4829 1.892916 L23.4829 -32.1458 L21.15355 -32.1458 L21.15355 -32.88399 L23.4829 -32.88399 L23.4829 -57.61496 L21.15355 -57.61496 L21.15355 -57.98405 L21.1207 -57.98405 L-4.748358 -57.98405 L-4.748358 -34.87447 L-4.748358 -17.8141 L-4.748358 -7.643499 L-4.748358 38.51546 L-4.748358 48.98675" />
    <path
       id="path1713"
       style="fill:none;stroke:black;"
       stroke-width="0.2"
       d="M21.31759 4.637012 A0.492126 0.492126 3.141593 0 1 22.30184 4.637012 A0.492126 0.492126 3.141593 0 1 21.31759 4.637012" />
    <path
       id="path1715"
       style="fill:none;stroke:black;"
       stroke-width="0.2"
       d="M21.31759 39.59534 A0.492126 0.492126 3.141593 0 1 22.30184 39.59534 A0.492126 0.492126 3.141593 0 1 21.31759 39.59534" />
    <path
       id="path1717"
       style="fill:none;stroke:black;"
       stroke-width="0.2"
       d="M21.31759 18.92868 A0.492126 0.492126 3.141593 0 1 22.30184 18.92868 A0.492126 0.492126 3.141593 0 1 21.31759 18.92868" />
    <path
       id="path1719"
       style="fill:none;stroke:black;"
       stroke-width="0.2"
       d="M21.31759 -1.737988 A0.492126 0.492126 3.141593 0 1 22.30184 -1.737988 A0.492126 0.492126 3.141593 0 1 21.31759 -1.737988" />
    <path
       id="path1721"
       style="fill:none;stroke:black;"
       stroke-width="0.2"
       d="M21.31759 -22.40465 A0.492126 0.492126 3.141593 0 1 22.30184 -22.40465 A0.492126 0.492126 3.141593 0 1 21.31759 -22.40465" />
    <path
       id="path1723"
       style="fill:none;stroke:black;"
       stroke-width="0.2"
       d="M21.31759 -43.07132 A0.492126 0.492126 3.141593 0 1 22.30184 -43.07132 A0.492126 0.492126 3.141593 0 1 21.31759 -43.07132" />
    <path
       id="path1725"
       style="fill:none;stroke:black;"
       stroke-width="0.2"
       d="M1.984254 39.59534 A0.492126 0.492126 3.141593 0 1 2.968506 39.59534 A0.492126 0.492126 3.141593 0 1 1.984254 39.59534" />
    <path
       id="path1727"
       style="fill:none;stroke:black;"
       stroke-width="0.2"
       d="M1.984254 18.92868 A0.492126 0.492126 3.141593 0 1 2.968506 18.92868 A0.492126 0.492126 3.141593 0 1 1.984254 18.92868" />
    <path
       id="path1729"
       style="fill:none;stroke:black;"
       stroke-width="0.2"
       d="M1.984254 -1.737988 A0.492126 0.492126 3.141593 0 1 2.968506 -1.737988 A0.492126 0.492126 3.141593 0 1 1.984254 -1.737988" />
    <path
       id="path1731"
       style="fill:none;stroke:black;"
       stroke-width="0.2"
       d="M1.984254 -22.40465 A0.492126 0.492126 3.141593 0 1 2.968506 -22.40465 A0.492126 0.492126 3.141593 0 1 1.984254 -22.40465" />
    <path
       id="path1733"
       style="fill:none;stroke:black;"
       stroke-width="0.2"
       d="M1.984254 -43.07132 A0.492126 0.492126 3.141593 0 1 2.968506 -43.07132 A0.492126 0.492126 3.141593 0 1 1.984254 -43.07132" />
  </g>
  <g
     id="g1739"
     roomName="Stair 217"
     roomId="215105">
    <path
       id="path1737"
       style="fill:none;stroke:black;"
       stroke-width="0.2"
       d="M-4.546586 52.544 L-4.546586 76.05368 L4.114831 76.05368 L4.114831 52.544 L-4.546586 52.544" />
  </g>
  <g
     id="g1755"
     roomName="Instruction 218"
     roomId="215118">
    <path
       id="path1741"
       style="fill:none;stroke:black;"
       stroke-width="0.2"
       d="M-5.202754 51.88783 L-5.202754 48.98675 L-5.202754 38.74266 L-31.81529 38.74266 L-31.81529 76.05368 L-5.202754 76.05368 L-5.202754 52.544 L-5.202754 51.88783" />
    <path
       id="path1743"
       style="fill:none;stroke:black;"
       stroke-width="0.2"
       d="M-6.682413 74.26201 A0.492126 0.492126 3.141593 0 1 -5.698161 74.26201 A0.492126 0.492126 3.141593 0 1 -6.682413 74.26201" />
    <path
       id="path1745"
       style="fill:none;stroke:black;"
       stroke-width="0.2"
       d="M-6.682413 50.26201 A0.492126 0.492126 3.141593 0 1 -5.698161 50.26201 A0.492126 0.492126 3.141593 0 1 -6.682413 50.26201" />
    <path
       id="path1747"
       style="fill:none;stroke:black;"
       stroke-width="0.2"
       d="M-6.682413 39.59534 A0.492126 0.492126 3.141593 0 1 -5.698161 39.59534 A0.492126 0.492126 3.141593 0 1 -6.682413 39.59534" />
    <path
       id="path1749"
       style="fill:none;stroke:black;"
       stroke-width="0.2"
       d="M-30.68241 74.26201 A0.492126 0.492126 3.141593 0 1 -29.69816 74.26201 A0.492126 0.492126 3.141593 0 1 -30.68241 74.26201" />
    <path
       id="path1751"
       style="fill:none;stroke:black;"
       stroke-width="0.2"
       d="M-30.68241 50.26201 A0.492126 0.492126 3.141593 0 1 -29.69816 50.26201 A0.492126 0.492126 3.141593 0 1 -30.68241 50.26201" />
    <path
       id="path1753"
       style="fill:none;stroke:black;"
       stroke-width="0.2"
       d="M-30.68241 39.59534 A0.492126 0.492126 3.141593 0 1 -29.69816 39.59534 A0.492126 0.492126 3.141593 0 1 -30.68241 39.59534" />
  </g>
  <g
     id="g1767"
     roomName="Library 219"
     roomId="215120">
    <path
       id="path1757"
       style="fill:none;stroke:black;"
       stroke-width="0.2"
       d="M-31.81529 -17.5869 L-31.81529 -7.643499 L-32.14337 -7.643499 L-32.14337 -7.416301 L-31.81529 -7.416301 L-31.81529 38.28826 L-5.202754 38.28826 L-5.202754 -7.416301 L-23.24737 -7.416301 L-23.24737 -17.5869 L-31.81529 -17.5869" />
    <path
       id="path1759"
       style="fill:none;stroke:black;"
       stroke-width="0.2"
       d="M-6.682413 18.92868 A0.492126 0.492126 3.141593 0 1 -5.698161 18.92868 A0.492126 0.492126 3.141593 0 1 -6.682413 18.92868" />
    <path
       id="path1761"
       style="fill:none;stroke:black;"
       stroke-width="0.2"
       d="M-6.682413 -1.737988 A0.492126 0.492126 3.141593 0 1 -5.698161 -1.737988 A0.492126 0.492126 3.141593 0 1 -6.682413 -1.737988" />
    <path
       id="path1763"
       style="fill:none;stroke:black;"
       stroke-width="0.2"
       d="M-30.68241 18.92868 A0.492126 0.492126 3.141593 0 1 -29.69816 18.92868 A0.492126 0.492126 3.141593 0 1 -30.68241 18.92868" />
    <path
       id="path1765"
       style="fill:none;stroke:black;"
       stroke-width="0.2"
       d="M-30.68241 -1.737988 A0.492126 0.492126 3.141593 0 1 -29.69816 -1.737988 A0.492126 0.492126 3.141593 0 1 -30.68241 -1.737988" />
  </g>
  <g
     id="g1771"
     roomName="Electrical 220"
     roomId="215122">
    <path
       id="path1769"
       style="fill:none;stroke:black;"
       stroke-width="0.2"
       d="M-22.79298 -7.870697 L-5.202754 -7.870697 L-5.202754 -17.5869 L-22.79298 -17.5869 L-22.79298 -7.870697" />
  </g>
  <g
     id="g1779"
     roomName="Instruction 221"
     roomId="215124">
    <path
       id="path1773"
       style="fill:none;stroke:black;"
       stroke-width="0.2"
       d="M-31.81529 -34.64727 L-31.81529 -18.0413 L-23.02018 -18.0413 L-5.202754 -18.0413 L-5.202754 -34.64727 L-31.81529 -34.64727" />
    <path
       id="path1775"
       style="fill:none;stroke:black;"
       stroke-width="0.2"
       d="M-6.682413 -22.40465 A0.492126 0.492126 3.141593 0 1 -5.698161 -22.40465 A0.492126 0.492126 3.141593 0 1 -6.682413 -22.40465" />
    <path
       id="path1777"
       style="fill:none;stroke:black;"
       stroke-width="0.2"
       d="M-30.68241 -22.40465 A0.492126 0.492126 3.141593 0 1 -29.69816 -22.40465 A0.492126 0.492126 3.141593 0 1 -30.68241 -22.40465" />
  </g>
  <g
     id="g1787"
     roomName="Computer Lab 222"
     roomId="215138">
    <path
       id="path1781"
       style="fill:none;stroke:black;"
       stroke-width="0.2"
       d="M-31.81529 -57.75686 L-31.81529 -47.56886 L-13.44258 -47.56886 L-13.44258 -47.11446 L-31.81529 -47.11446 L-31.81529 -35.10167 L-5.202754 -35.10167 L-5.202754 -57.75686 L-5.264925 -57.75686 L-31.81529 -57.75686" />
    <path
       id="path1783"
       style="fill:none;stroke:black;"
       stroke-width="0.2"
       d="M-6.682413 -43.07132 A0.492126 0.492126 3.141593 0 1 -5.698161 -43.07132 A0.492126 0.492126 3.141593 0 1 -6.682413 -43.07132" />
    <path
       id="path1785"
       style="fill:none;stroke:black;"
       stroke-width="0.2"
       d="M-30.68241 -43.07132 A0.492126 0.492126 3.141593 0 1 -29.69816 -43.07132 A0.492126 0.492126 3.141593 0 1 -30.68241 -43.07132" />
  </g>
  <g
     id="g1803"
     roomName="Lounge 223"
     roomId="215140">
    <path
       id="path1789"
       style="fill:none;stroke:black;"
       stroke-width="0.2"
       d="M-31.81529 -73.76408 L-32.14337 -73.76408 L-32.14337 -73.26703 L-31.81529 -73.26703 L-31.81529 -58.21125 L-5.264925 -58.21125 L-5.264925 -63.60339 L-5.716924 -63.60339 A0.492126 0.492126 2.864566 0 1 -6.682413 -63.73799 A0.492126 0.492126 2.864566 0 1 -5.716924 -63.87258 L-5.264925 -63.87258 L-5.264925 -73.79688 L2.105053 -73.61761 L2.116045 -74.06947 A0.492126 0.492126 0.7492499 0 1 1.984254 -74.40466 A0.492126 0.492126 3.141593 0 1 2.968506 -74.40466 A0.492126 0.492126 0.7978917 0 1 2.819991 -74.05235 L2.808999 -73.60048 L6.152399 -73.51915 L6.152399 -92.87497 L6.379597 -92.87497 L6.379597 -100.0051 L-31.81529 -100.0051 L-31.81529 -73.76408" />
    <path
       id="path1791"
       style="fill:none;stroke:black;"
       stroke-width="0.2"
       d="M-6.682413 -74.40466 A0.492126 0.492126 3.141593 0 1 -5.698161 -74.40466 A0.492126 0.492126 3.141593 0 1 -6.682413 -74.40466" />
    <path
       id="path1793"
       style="fill:none;stroke:black;"
       stroke-width="0.2"
       d="M-6.682413 -98.40466 A0.492126 0.492126 3.141593 0 1 -5.698161 -98.40466 A0.492126 0.492126 3.141593 0 1 -6.682413 -98.40466" />
    <path
       id="path1795"
       style="fill:none;stroke:black;"
       stroke-width="0.2"
       d="M1.984254 -98.40466 A0.492126 0.492126 3.141593 0 1 2.968506 -98.40466 A0.492126 0.492126 3.141593 0 1 1.984254 -98.40466" />
    <path
       id="path1797"
       style="fill:none;stroke:black;"
       stroke-width="0.2"
       d="M-30.68241 -63.73799 A0.492126 0.492126 3.141593 0 1 -29.69816 -63.73799 A0.492126 0.492126 3.141593 0 1 -30.68241 -63.73799" />
    <path
       id="path1799"
       style="fill:none;stroke:black;"
       stroke-width="0.2"
       d="M-30.68241 -74.40466 A0.492126 0.492126 3.141593 0 1 -29.69816 -74.40466 A0.492126 0.492126 3.141593 0 1 -30.68241 -74.40466" />
    <path
       id="path1801"
       style="fill:none;stroke:black;"
       stroke-width="0.2"
       d="M-30.68241 -98.40466 A0.492126 0.492126 3.141593 0 1 -29.69816 -98.40466 A0.492126 0.492126 3.141593 0 1 -30.68241 -98.40466" />
  </g>
  <g
     id="g1809"
     roomName="Caferteria 224"
     roomId="215167">
    <path
       id="path1805"
       style="fill:none;stroke:black;"
       stroke-width="0.2"
       d="M27.3732 -100.0051 L21.80971 -100.0051 L6.379597 -100.0051 L6.379597 -92.87497 L6.606795 -92.87497 L6.606795 -73.74521 L15.33875 -73.74521 L15.33875 -80.73586 L15.33875 -88.34495 L26.61614 -88.34495 L27.3732 -88.34495 L27.3732 -100.0051" />
    <path
       id="path1807"
       style="fill:none;stroke:black;"
       stroke-width="0.2"
       d="M21.31759 -98.40466 A0.492126 0.492126 3.141593 0 1 22.30184 -98.40466 A0.492126 0.492126 3.141593 0 1 21.31759 -98.40466" />
  </g>
  <g
     id="g1813"
     roomName="Women 225"
     roomId="215169">
    <path
       id="path1811"
       style="fill:none;stroke:black;"
       stroke-width="0.2"
       d="M26.38894 -87.89056 L15.79315 -87.89056 L15.79315 -80.96306 L23.11188 -80.96306 L26.38894 -80.96306 L26.38894 -87.89056" />
  </g>
  <g
     id="g1817"
     roomName="Men 226"
     roomId="215171">
    <path
       id="path1815"
       style="fill:none;stroke:black;"
       stroke-width="0.2"
       d="M39.18422 -80.96306 L39.18422 -87.89056 L28.15568 -87.89056 L28.15568 -80.96306 L31.86549 -80.96306 L39.18422 -80.96306" />
  </g>
  <g
     id="g1821"
     roomName="Electrical 227"
     roomId="215173">
    <path
       id="path1819"
       style="fill:none;stroke:black;"
       stroke-width="0.2"
       d="M23.33908 -80.50867 L23.33908 -73.74521 L31.63829 -73.74521 L31.63829 -80.50867 L27.92848 -80.50867 L26.61614 -80.50867 L23.33908 -80.50867" />
  </g>
  <g
     id="g1825"
     roomName="Copy/Print 228"
     roomId="215175">
    <path
       id="path1823"
       style="fill:none;stroke:black;"
       stroke-width="0.2"
       d="M39.18422 -100.0051 L27.82759 -100.0051 L27.82759 -88.34495 L27.92848 -88.34495 L39.18422 -88.34495 L39.18422 -100.0051" />
  </g>
  <g
     id="g1831"
     roomName="Administration 229"
     roomId="215177">
    <path
       id="path1827"
       style="fill:none;stroke:black;"
       stroke-width="0.2"
       d="M56.24459 -100.0051 L39.63862 -100.0051 L39.63862 -88.11775 L39.63862 -80.73586 L39.63862 -73.74521 L42.1694 -73.74521 L42.1694 -74.02001 A0.492126 0.492126 0.8972082 0 1 41.98425 -74.40466 A0.492126 0.492126 3.141593 0 1 42.96851 -74.40466 A0.492126 0.492126 0.8972082 0 1 42.78336 -74.02001 L42.78336 -73.74521 L56.24459 -73.74521 L56.24459 -80.73586 L56.24459 -100.0051" />
    <path
       id="path1829"
       style="fill:none;stroke:black;"
       stroke-width="0.2"
       d="M41.98425 -98.40466 A0.492126 0.492126 3.141593 0 1 42.96851 -98.40466 A0.492126 0.492126 3.141593 0 1 41.98425 -98.40466" />
  </g>
  <g
     id="g1837"
     roomName="Office 230"
     roomId="215179">
    <path
       id="path1833"
       style="fill:none;stroke:black;"
       stroke-width="0.2"
       d="M65.10286 -100.0051 L56.69899 -100.0051 L56.69899 -80.96306 L65.10286 -80.96306 L65.10286 -100.0051" />
    <path
       id="path1835"
       style="fill:none;stroke:black;"
       stroke-width="0.2"
       d="M63.31759 -98.40466 A0.492126 0.492126 3.141593 0 1 64.30184 -98.40466 A0.492126 0.492126 3.141593 0 1 63.31759 -98.40466" />
  </g>
  <g
     id="g1841"
     roomName="Office 231"
     roomId="215192">
    <path
       id="path1839"
       style="fill:none;stroke:black;"
       stroke-width="0.2"
       d="M79.95046 -100.0051 L65.55725 -100.0051 L65.55725 -80.96306 L69.59515 -80.96306 L78.31004 -80.96306 L79.95046 -80.96306 L79.95046 -100.0051" />
  </g>
  <g
     id="g1845"
     roomName="Toilet 232"
     roomId="215194">
    <path
       id="path1843"
       style="fill:none;stroke:black;"
       stroke-width="0.2"
       d="M69.82234 -73.24324 L78.08284 -73.24324 L78.08284 -80.50867 L69.82234 -80.50867 L69.82234 -73.24324" />
  </g>
  <g
     id="g1849"
     roomName="Stair 233"
     roomId="215196">
    <path
       id="path1847"
       style="fill:none;stroke:black;"
       stroke-width="0.2"
       d="M80.60663 -100.3331 L80.60663 -80.73586 L80.60663 -76.81526 L89.26804 -76.81526 L89.26804 -100.3331 L80.60663 -100.3331" />
  </g>
  <g
     id="g1861"
     roomName="Corridor 234"
     roomId="215198">
    <path
       id="path1851"
       style="fill:none;stroke:black;"
       stroke-width="0.2"
       d="M80.60663 -76.24111 L80.60663 -72.78885 L78.31004 -72.78885 L69.36795 -72.78885 L69.36795 -80.50867 L65.33006 -80.50867 L56.69899 -80.50867 L56.69899 -73.29082 L42.78336 -73.29082 L42.1694 -73.29082 L39.18422 -73.29082 L39.18422 -80.50867 L32.09269 -80.50867 L32.09269 -73.29082 L22.88468 -73.29082 L22.88468 -80.50867 L15.79315 -80.50867 L15.79315 -73.29082 L6.379597 -73.29082 L6.379597 -73.51801 L6.199151 -73.51801 L6.199151 -73.2416 L-4.693238 -73.2416 L-4.975556 -57.98405 L21.1207 -57.98405 L21.1207 -58.3794 L23.4829 -58.3794 L23.4829 -64.66221 L89.42778 -64.66221 L89.42778 -73.29082 L89.26804 -73.29082 L89.26804 -76.24111 L80.60663 -76.24111" />
    <path
       id="path1853"
       style="fill:none;stroke:black;"
       stroke-width="0.2"
       d="M63.31759 -74.40466 A0.492126 0.492126 3.141593 0 1 64.30184 -74.40466 A0.492126 0.492126 3.141593 0 1 63.31759 -74.40466" />
    <path
       id="path1855"
       style="fill:none;stroke:black;"
       stroke-width="0.2"
       d="M21.31759 -63.73799 A0.492126 0.492126 3.141593 0 1 22.30184 -63.73799 A0.492126 0.492126 3.141593 0 1 21.31759 -63.73799" />
    <path
       id="path1857"
       style="fill:none;stroke:black;"
       stroke-width="0.2"
       d="M21.31759 -74.40466 A0.492126 0.492126 3.141593 0 1 22.30184 -74.40466 A0.492126 0.492126 3.141593 0 1 21.31759 -74.40466" />
    <path
       id="path1859"
       style="fill:none;stroke:black;"
       stroke-width="0.2"
       d="M1.984254 -63.73799 A0.492126 0.492126 3.141593 0 1 2.968506 -63.73799 A0.492126 0.492126 3.141593 0 1 1.984254 -63.73799" />
  </g>
  <g
     id="g1869"
     roomName="Lounge 206"
     roomId="217810">
    <path
       id="path1863"
       style="fill:none;stroke:black;"
       stroke-width="0.2"
       d="M116.9514 49.44115 L104.2825 49.44115 L104.2825 76.05368 L116.9514 76.05368 L116.9514 49.44115" />
    <path
       id="path1865"
       style="fill:none;stroke:black;"
       stroke-width="0.2"
       d="M105.9843 74.26201 A0.492126 0.492126 3.141593 0 1 106.9685 74.26201 A0.492126 0.492126 3.141593 0 1 105.9843 74.26201" />
    <path
       id="path1867"
       style="fill:none;stroke:black;"
       stroke-width="0.2"
       d="M105.9843 50.26201 A0.492126 0.492126 3.141593 0 1 106.9685 50.26201 A0.492126 0.492126 3.141593 0 1 105.9843 50.26201" />
  </g>
  <g
     id="g1873"
     roomName="Copy/Print 207"
     roomId="217811">
    <path
       id="path1871"
       style="fill:none;stroke:black;"
       stroke-width="0.2"
       d="M103.8281 49.44115 L91.15913 49.44115 L91.15913 76.05368 L103.8281 76.05368 L103.8281 49.44115" />
  </g>
  <g
     id="g1881"
     roomName="Drafting 208"
     roomId="217812">
    <path
       id="path1875"
       style="fill:none;stroke:black;"
       stroke-width="0.2"
       d="M90.70473 49.44115 L71.47408 49.44115 L71.47408 76.05368 L90.70473 76.05368 L90.70473 49.44115" />
    <path
       id="path1877"
       style="fill:none;stroke:black;"
       stroke-width="0.2"
       d="M84.65092 74.26201 A0.492126 0.492126 3.141593 0 1 85.63517 74.26201 A0.492126 0.492126 3.141593 0 1 84.65092 74.26201" />
    <path
       id="path1879"
       style="fill:none;stroke:black;"
       stroke-width="0.2"
       d="M84.65092 50.26201 A0.492126 0.492126 3.141593 0 1 85.63517 50.26201 A0.492126 0.492126 3.141593 0 1 84.65092 50.26201" />
  </g>
  <g
     id="g1889"
     roomName="Computer Lab 209"
     roomId="217813">
    <path
       id="path1883"
       style="fill:none;stroke:black;"
       stroke-width="0.2"
       d="M41.71933 50.16393 L41.99413 50.16393 A0.492126 0.492126 2.940937 0 1 42.96851 50.26201 A0.492126 0.492126 2.940937 0 1 41.99413 50.3601 L41.71933 50.3601 L41.71933 56.80909 L41.71933 74.16393 L41.99413 74.16393 A0.492126 0.492126 2.940937 0 1 42.96851 74.26201 A0.492126 0.492126 2.940937 0 1 41.99413 74.3601 L41.71933 74.3601 L41.71933 76.05368 L71.01968 76.05368 L71.01968 49.44115 L41.71933 49.44115 L41.71933 50.16393" />
    <path
       id="path1885"
       style="fill:none;stroke:black;"
       stroke-width="0.2"
       d="M63.31759 74.26201 A0.492126 0.492126 3.141593 0 1 64.30184 74.26201 A0.492126 0.492126 3.141593 0 1 63.31759 74.26201" />
    <path
       id="path1887"
       style="fill:none;stroke:black;"
       stroke-width="0.2"
       d="M63.31759 50.26201 A0.492126 0.492126 3.141593 0 1 64.30184 50.26201 A0.492126 0.492126 3.141593 0 1 63.31759 50.26201" />
  </g>
</svg>
