<?xml version="1.0" encoding="utf-8"?>
<!DOCTYPE svg PUBLIC "-//W3C//DTD SVG 1.1//EN" "http://www.w3.org/Graphics/SVG/1.1/DTD/svg11.dtd">
<svg width="236.8139" height="196.0939" viewBox="-41.87434, -110.0051, 236.8139, 196.0939" xmlns="http://www.w3.org/2000/svg" xmlns:xlink="http://www.w3.org/1999/xlink" xmlns:xml="http://www.w3.org/XML/1998/namespace" version="1.1">
  <g roomId="177056" roomName="Vest. 101">
    <path d="M-13.12598 -20.40334 L-5.024768 -20.40334 L-5.024768 -28.67176 L-5.287236 -72.76998 L-13.12598 -72.76998 L-13.12598 -20.40334" stroke-width="0.2" style="fill:none;stroke:black;" />
    <path d="M-6.682413 -22.40465 A0.492126 0.492126 3.141593 0 1 -5.698161 -22.40465 A0.492126 0.492126 3.141593 0 1 -6.682413 -22.40465" stroke-width="0.2" style="fill:none;stroke:black;" />
    <path d="M-6.682413 -43.07132 A0.492126 0.492126 3.141593 0 1 -5.698161 -43.07132 A0.492126 0.492126 3.141593 0 1 -6.682413 -43.07132" stroke-width="0.2" style="fill:none;stroke:black;" />
    <path d="M-6.682413 -63.73799 A0.492126 0.492126 3.141593 0 1 -5.698161 -63.73799 A0.492126 0.492126 3.141593 0 1 -6.682413 -63.73799" stroke-width="0.2" style="fill:none;stroke:black;" />
  </g>
  <g roomId="177304" roomName="Lobby 102">
    <path d="M4.114831 48.98675 L12.64501 48.98675 L23.93045 48.98675 L23.93045 40.7525 L23.47277 40.7525 L23.47277 22.29777 L21.15355 22.29777 L21.15355 21.55958 L23.47277 21.55958 L23.76805 21.55958 L23.76805 2.631105 L23.48064 2.631105 L21.15355 2.631105 L21.15355 1.892916 L23.48064 1.892916 L23.48064 -32.1458 L21.15355 -32.1458 L21.15355 -32.88399 L23.48064 -32.88399 L23.48064 -57.61496 L21.15355 -57.61496 L21.15355 -58.35315 L23.48064 -58.35315 L23.48064 -64.64581 L23.93045 -64.64581 L23.93045 -73.01604 L-4.748358 -73.01604 L-4.748358 -20.40334 L-5.024768 -20.40334 L-5.024768 -19.90629 L-4.748358 -19.90629 L-4.748358 -13.97798 L-7.639012 -13.97798 L-7.639012 -7.870697 L-4.748358 -7.870697 L-4.748358 12.26874 L-4.748358 25.3921 L-4.748358 48.98675 L-4.546586 48.98675 L-4.546586 51.90424 L4.114831 51.90424 L4.114831 48.98675" stroke-width="0.2" style="fill:none;stroke:black;" />
    <path d="M21.31759 4.637012 A0.492126 0.492126 3.141593 0 1 22.30184 4.637012 A0.492126 0.492126 3.141593 0 1 21.31759 4.637012" stroke-width="0.2" style="fill:none;stroke:black;" />
    <path d="M21.31759 39.59534 A0.492126 0.492126 3.141593 0 1 22.30184 39.59534 A0.492126 0.492126 3.141593 0 1 21.31759 39.59534" stroke-width="0.2" style="fill:none;stroke:black;" />
    <path d="M21.31759 18.92868 A0.492126 0.492126 3.141593 0 1 22.30184 18.92868 A0.492126 0.492126 3.141593 0 1 21.31759 18.92868" stroke-width="0.2" style="fill:none;stroke:black;" />
    <path d="M21.31759 -1.737988 A0.492126 0.492126 3.141593 0 1 22.30184 -1.737988 A0.492126 0.492126 3.141593 0 1 21.31759 -1.737988" stroke-width="0.2" style="fill:none;stroke:black;" />
    <path d="M21.31759 -22.40465 A0.492126 0.492126 3.141593 0 1 22.30184 -22.40465 A0.492126 0.492126 3.141593 0 1 21.31759 -22.40465" stroke-width="0.2" style="fill:none;stroke:black;" />
    <path d="M21.31759 -43.07132 A0.492126 0.492126 3.141593 0 1 22.30184 -43.07132 A0.492126 0.492126 3.141593 0 1 21.31759 -43.07132" stroke-width="0.2" style="fill:none;stroke:black;" />
    <path d="M21.31759 -63.73799 A0.492126 0.492126 3.141593 0 1 22.30184 -63.73799 A0.492126 0.492126 3.141593 0 1 21.31759 -63.73799" stroke-width="0.2" style="fill:none;stroke:black;" />
    <path d="M1.984254 39.59534 A0.492126 0.492126 3.141593 0 1 2.968506 39.59534 A0.492126 0.492126 3.141593 0 1 1.984254 39.59534" stroke-width="0.2" style="fill:none;stroke:black;" />
    <path d="M1.984254 18.92868 A0.492126 0.492126 3.141593 0 1 2.968506 18.92868 A0.492126 0.492126 3.141593 0 1 1.984254 18.92868" stroke-width="0.2" style="fill:none;stroke:black;" />
    <path d="M1.984254 -1.737988 A0.492126 0.492126 3.141593 0 1 2.968506 -1.737988 A0.492126 0.492126 3.141593 0 1 1.984254 -1.737988" stroke-width="0.2" style="fill:none;stroke:black;" />
    <path d="M1.984254 -22.40465 A0.492126 0.492126 3.141593 0 1 2.968506 -22.40465 A0.492126 0.492126 3.141593 0 1 1.984254 -22.40465" stroke-width="0.2" style="fill:none;stroke:black;" />
    <path d="M1.984254 -43.07132 A0.492126 0.492126 3.141593 0 1 2.968506 -43.07132 A0.492126 0.492126 3.141593 0 1 1.984254 -43.07132" stroke-width="0.2" style="fill:none;stroke:black;" />
    <path d="M1.984254 -63.73799 A0.492126 0.492126 3.141593 0 1 2.968506 -63.73799 A0.492126 0.492126 3.141593 0 1 1.984254 -63.73799" stroke-width="0.2" style="fill:none;stroke:black;" />
  </g>
  <g roomId="177305" roomName="Cafeteria 121">
    <path d="M26.74984 -100.0051 L21.80971 -100.0051 L-31.87434 -100.0051 L-31.87434 -73.76408 L-13.40485 -73.76408 L-13.12598 -73.76408 L-5.287205 -73.76408 L-4.52116 -73.76408 L-4.52116 -73.32773 L26.74984 -73.32773 L26.74984 -80.73586 L26.74984 -100.0051" stroke-width="0.2" style="fill:none;stroke:black;" />
    <path d="M-6.682413 -74.40466 A0.492126 0.492126 3.141593 0 1 -5.698161 -74.40466 A0.492126 0.492126 3.141593 0 1 -6.682413 -74.40466" stroke-width="0.2" style="fill:none;stroke:black;" />
    <path d="M-6.682413 -98.40466 A0.492126 0.492126 3.141593 0 1 -5.698161 -98.40466 A0.492126 0.492126 3.141593 0 1 -6.682413 -98.40466" stroke-width="0.2" style="fill:none;stroke:black;" />
    <path d="M21.31759 -74.40466 A0.492126 0.492126 3.141593 0 1 22.30184 -74.40466 A0.492126 0.492126 3.141593 0 1 21.31759 -74.40466" stroke-width="0.2" style="fill:none;stroke:black;" />
    <path d="M21.31759 -98.40466 A0.492126 0.492126 3.141593 0 1 22.30184 -98.40466 A0.492126 0.492126 3.141593 0 1 21.31759 -98.40466" stroke-width="0.2" style="fill:none;stroke:black;" />
    <path d="M1.984254 -74.40466 A0.492126 0.492126 3.141593 0 1 2.968506 -74.40466 A0.492126 0.492126 3.141593 0 1 1.984254 -74.40466" stroke-width="0.2" style="fill:none;stroke:black;" />
    <path d="M1.984254 -98.40466 A0.492126 0.492126 3.141593 0 1 2.968506 -98.40466 A0.492126 0.492126 3.141593 0 1 1.984254 -98.40466" stroke-width="0.2" style="fill:none;stroke:black;" />
    <path d="M-30.68241 -74.40466 A0.492126 0.492126 3.141593 0 1 -29.69816 -74.40466 A0.492126 0.492126 3.141593 0 1 -30.68241 -74.40466" stroke-width="0.2" style="fill:none;stroke:black;" />
    <path d="M-30.68241 -98.40466 A0.492126 0.492126 3.141593 0 1 -29.69816 -98.40466 A0.492126 0.492126 3.141593 0 1 -30.68241 -98.40466" stroke-width="0.2" style="fill:none;stroke:black;" />
  </g>
  <g roomId="177306" roomName="Prep/Dish 122">
    <path d="M39.74196 -100.0051 L27.20423 -100.0051 L27.20423 -80.96306 L39.74196 -80.96306 L39.74196 -100.0051" stroke-width="0.2" style="fill:none;stroke:black;" />
  </g>
  <g roomId="177307" roomName="Dry Storage 124">
    <path d="M27.20423 -73.24324 L39.74196 -73.24324 L39.74196 -80.50867 L27.20423 -80.50867 L27.20423 -73.32773 L27.20423 -73.24324" stroke-width="0.2" style="fill:none;stroke:black;" />
  </g>
  <g roomId="177308" roomName="Electrical 125">
    <path d="M40.19636 -73.24324 L48.73146 -73.24324 L48.73146 -80.50867 L40.19636 -80.50867 L40.19636 -73.24324" stroke-width="0.2" style="fill:none;stroke:black;" />
    <path d="M41.98425 -74.40466 A0.492126 0.492126 3.141593 0 1 42.96851 -74.40466 A0.492126 0.492126 3.141593 0 1 41.98425 -74.40466" stroke-width="0.2" style="fill:none;stroke:black;" />
  </g>
  <g roomId="177309" roomName="Conference 123">
    <path d="M59.49262 -100.0051 L40.19636 -100.0051 L40.19636 -80.96306 L49.18586 -80.96306 L49.18586 -73.24324 L59.49262 -73.24324 L59.49262 -91.49948 L59.49262 -100.0051" stroke-width="0.2" style="fill:none;stroke:black;" />
    <path d="M41.98425 -98.40466 A0.492126 0.492126 3.141593 0 1 42.96851 -98.40466 A0.492126 0.492126 3.141593 0 1 41.98425 -98.40466" stroke-width="0.2" style="fill:none;stroke:black;" />
  </g>
  <g roomId="177310" roomName="Office 127">
    <path d="M79.95046 -100.0051 L59.94702 -100.0051 L59.94702 -91.72668 L69.59515 -91.72668 L79.95046 -91.72668 L79.95046 -100.0051" stroke-width="0.2" style="fill:none;stroke:black;" />
    <path d="M63.31759 -98.40466 A0.492126 0.492126 3.141593 0 1 64.30184 -98.40466 A0.492126 0.492126 3.141593 0 1 63.31759 -98.40466" stroke-width="0.2" style="fill:none;stroke:black;" />
  </g>
  <g roomId="177311" roomName="Admin 126">
    <path d="M59.94702 -73.24324 L69.36795 -73.24324 L69.36795 -80.73586 L69.36795 -91.27228 L59.94702 -91.27228 L59.94702 -73.24324" stroke-width="0.2" style="fill:none;stroke:black;" />
    <path d="M63.31759 -74.40466 A0.492126 0.492126 3.141593 0 1 64.30184 -74.40466 A0.492126 0.492126 3.141593 0 1 63.31759 -74.40466" stroke-width="0.2" style="fill:none;stroke:black;" />
  </g>
  <g roomId="177312" roomName="Storage 128">
    <path d="M79.95046 -80.96306 L79.95046 -91.27228 L69.82234 -91.27228 L69.82234 -80.96306 L78.31004 -80.96306 L79.95046 -80.96306" stroke-width="0.2" style="fill:none;stroke:black;" />
  </g>
  <g roomId="177313" roomName="Toilet 129">
    <path d="M69.82234 -73.24324 L78.08284 -73.24324 L78.08284 -80.50867 L69.82234 -80.50867 L69.82234 -73.24324" stroke-width="0.2" style="fill:none;stroke:black;" />
  </g>
  <g roomId="177314" roomName="Stair 130">
    <path d="M89.26804 -100.0051 L80.60663 -100.0051 L80.60663 -91.49948 L80.60663 -80.73586 L80.60663 -76.86447 L89.26804 -76.86447 L89.26804 -100.0051" stroke-width="0.2" style="fill:none;stroke:black;" />
  </g>
  <g roomId="177315" roomName="Corridor 131">
    <path d="M80.60663 -72.78885 L78.31004 -72.78885 L69.59515 -72.78885 L59.71982 -72.78885 L48.95866 -72.78885 L39.96916 -72.78885 L26.97704 -72.78885 L26.97704 -73.01604 L23.93045 -73.01604 L23.93045 -64.64581 L89.47474 -64.64581 L89.47474 -73.29082 L89.26804 -73.29082 L89.26804 -76.1919 L80.60663 -76.1919 L80.60663 -72.78885" stroke-width="0.2" style="fill:none;stroke:black;" />
  </g>
  <g roomId="177316" roomName="Sprinkler 119">
    <path d="M-23.5123 -19.40925 L-31.81529 -19.40925 L-31.81529 -7.870697 L-23.5123 -7.870697 L-23.5123 -19.40925" stroke-width="0.2" style="fill:none;stroke:black;" />
  </g>
  <g roomId="177317" roomName="Electrical 118">
    <path d="M-5.202754 -19.40925 L-13.12598 -19.40925 L-13.40485 -19.40925 L-23.05791 -19.40925 L-23.05791 -7.870697 L-8.093409 -7.870697 L-8.093409 -14.43238 L-5.202754 -14.43238 L-5.202754 -19.40925" stroke-width="0.2" style="fill:none;stroke:black;" />
  </g>
  <g roomId="177318" roomName="Instruction 117">
    <path d="M-5.202754 -7.416301 L-7.86621 -7.416301 L-23.2851 -7.416301 L-31.85958 -7.416301 L-31.85958 12.04154 L-5.202754 12.04154 L-5.202754 -7.416301" stroke-width="0.2" style="fill:none;stroke:black;" />
    <path d="M-6.682413 -1.737988 A0.492126 0.492126 3.141593 0 1 -5.698161 -1.737988 A0.492126 0.492126 3.141593 0 1 -6.682413 -1.737988" stroke-width="0.2" style="fill:none;stroke:black;" />
    <path d="M-30.68241 -1.737988 A0.492126 0.492126 3.141593 0 1 -29.69816 -1.737988 A0.492126 0.492126 3.141593 0 1 -30.68241 -1.737988" stroke-width="0.2" style="fill:none;stroke:black;" />
  </g>
  <g roomId="177319" roomName="Lounge 120">
    <path d="M23.76805 21.55958 L25.74672 21.55958 L45.94029 21.55958 L45.94029 2.631105 L25.74672 2.631105 L23.76805 2.631105 L23.76805 21.55958" stroke-width="0.2" style="fill:none;stroke:black;" />
    <path d="M41.98425 4.637012 A0.492126 0.492126 3.141593 0 1 42.96851 4.637012 A0.492126 0.492126 3.141593 0 1 41.98425 4.637012" stroke-width="0.2" style="fill:none;stroke:black;" />
    <path d="M41.98425 18.92868 A0.492126 0.492126 3.141593 0 1 42.96851 18.92868 A0.492126 0.492126 3.141593 0 1 41.98425 18.92868" stroke-width="0.2" style="fill:none;stroke:black;" />
  </g>
  <g roomId="177320" roomName="Conference 116">
    <path d="M-5.202754 12.49594 L-31.85958 12.49594 L-31.85958 25.1649 L-5.202754 25.1649 L-5.202754 12.49594" stroke-width="0.2" style="fill:none;stroke:black;" />
    <path d="M-6.682413 18.92868 A0.492126 0.492126 3.141593 0 1 -5.698161 18.92868 A0.492126 0.492126 3.141593 0 1 -6.682413 18.92868" stroke-width="0.2" style="fill:none;stroke:black;" />
    <path d="M-30.68241 18.92868 A0.492126 0.492126 3.141593 0 1 -29.69816 18.92868 A0.492126 0.492126 3.141593 0 1 -30.68241 18.92868" stroke-width="0.2" style="fill:none;stroke:black;" />
  </g>
  <g roomId="177321" roomName="Instruction 115">
    <path d="M-5.202754 25.6193 L-31.85958 25.6193 L-31.85958 76.08885 L-5.202754 76.08885 L-5.202754 52.5276 L-5.202754 51.90424 L-5.202754 48.98675 L-5.202754 25.6193" stroke-width="0.2" style="fill:none;stroke:black;" />
    <path d="M-6.682413 74.26201 A0.492126 0.492126 3.141593 0 1 -5.698161 74.26201 A0.492126 0.492126 3.141593 0 1 -6.682413 74.26201" stroke-width="0.2" style="fill:none;stroke:black;" />
    <path d="M-6.682413 39.59534 A0.492126 0.492126 3.141593 0 1 -5.698161 39.59534 A0.492126 0.492126 3.141593 0 1 -6.682413 39.59534" stroke-width="0.2" style="fill:none;stroke:black;" />
    <path d="M-30.68241 74.26201 A0.492126 0.492126 3.141593 0 1 -29.69816 74.26201 A0.492126 0.492126 3.141593 0 1 -30.68241 74.26201" stroke-width="0.2" style="fill:none;stroke:black;" />
    <path d="M-30.68241 50.26201 A0.492126 0.492126 3.141593 0 1 -29.69816 50.26201 A0.492126 0.492126 3.141593 0 1 -30.68241 50.26201" stroke-width="0.2" style="fill:none;stroke:black;" />
    <path d="M-30.68241 39.59534 A0.492126 0.492126 3.141593 0 1 -29.69816 39.59534 A0.492126 0.492126 3.141593 0 1 -30.68241 39.59534" stroke-width="0.2" style="fill:none;stroke:black;" />
  </g>
  <g roomId="177322" roomName="Stair 114">
    <path d="M-4.546586 52.5276 L-4.546586 76.05368 L4.114831 76.05368 L4.114831 52.5276 L-4.546586 52.5276" stroke-width="0.2" style="fill:none;stroke:black;" />
  </g>
  <g roomId="177324" roomName="Electrical 112">
    <path d="M23.47845 49.44115 L12.87221 49.44115 L12.87221 56.58189 L23.54085 56.58189 L23.54085 49.44115 L23.47845 49.44115" stroke-width="0.2" style="fill:none;stroke:black;" />
  </g>
  <g roomId="177325" roomName="Lounge 111">
    <path d="M12.41782 49.44115 L4.770999 49.44115 L4.770999 51.90424 L4.770999 52.5276 L4.770999 76.05368 L23.54085 76.05368 L23.54085 57.03629 L12.41782 57.03629 L12.41782 49.44115" stroke-width="0.2" style="fill:none;stroke:black;" />
    <path d="M21.31759 74.26201 A0.492126 0.492126 3.141593 0 1 22.30184 74.26201 A0.492126 0.492126 3.141593 0 1 21.31759 74.26201" stroke-width="0.2" style="fill:none;stroke:black;" />
  </g>
  <g roomId="177326" roomName="Men 110">
    <path d="M23.99525 76.05368 L31.74295 76.05368 L31.74295 57.03629 L29.34548 57.03629 L23.99525 57.03629 L23.99525 76.05368" stroke-width="0.2" style="fill:none;stroke:black;" />
  </g>
  <g roomId="177328" roomName="Women 109">
    <path d="M33.83776 76.05368 L41.26493 76.05368 L41.26493 74.3601 L41.26493 74.16393 L41.26493 57.03629 L35.9147 57.03629 L33.83776 57.03629 L33.83776 76.05368" stroke-width="0.2" style="fill:none;stroke:black;" />
  </g>
  <g roomId="177329" roomName="Corridor 107">
    <path d="M184.9396 51.92064 L184.9396 48.98675 L184.9396 40.7525 L23.93045 40.7525 L23.93045 48.71195 L23.93045 49.21395 L23.99525 49.21395 L23.99525 56.58189 L29.11828 56.58189 L29.11828 48.98675 L36.1419 48.98675 L36.1419 56.58189 L41.26493 56.58189 L41.26493 50.3601 L41.26493 50.16393 L41.26493 48.98675 L77.80856 48.98675 L97.49361 48.98675 L136.8637 48.98675 L156.5487 48.98675 L176.2781 48.98675 L176.2781 51.92064 L184.9396 51.92064" stroke-width="0.2" style="fill:none;stroke:black;" />
  </g>
  <g roomId="177330" roomName="Instruction 108">
    <path d="M41.71933 50.16393 L41.99413 50.16393 A0.492126 0.492126 2.940937 0 1 42.96851 50.26201 A0.492126 0.492126 2.940937 0 1 41.99413 50.3601 L41.71933 50.3601 L41.71933 56.80909 L41.71933 74.16393 L41.99413 74.16393 A0.492126 0.492126 2.940937 0 1 42.96851 74.26201 A0.492126 0.492126 2.940937 0 1 41.99413 74.3601 L41.71933 74.3601 L41.71933 76.05368 L77.58137 76.05368 L77.58137 49.44115 L41.71933 49.44115 L41.71933 50.16393" stroke-width="0.2" style="fill:none;stroke:black;" />
    <path d="M63.31759 74.26201 A0.492126 0.492126 3.141593 0 1 64.30184 74.26201 A0.492126 0.492126 3.141593 0 1 63.31759 74.26201" stroke-width="0.2" style="fill:none;stroke:black;" />
    <path d="M63.31759 50.26201 A0.492126 0.492126 3.141593 0 1 64.30184 50.26201 A0.492126 0.492126 3.141593 0 1 63.31759 50.26201" stroke-width="0.2" style="fill:none;stroke:black;" />
  </g>
  <g roomId="177331" roomName="Instruction 106">
    <path d="M97.2664 49.44115 L78.03577 49.44115 L78.03577 76.05368 L97.2664 76.05368 L97.2664 49.44115" stroke-width="0.2" style="fill:none;stroke:black;" />
    <path d="M84.65092 74.26201 A0.492126 0.492126 3.141593 0 1 85.63517 74.26201 A0.492126 0.492126 3.141593 0 1 84.65092 74.26201" stroke-width="0.2" style="fill:none;stroke:black;" />
    <path d="M84.65092 50.26201 A0.492126 0.492126 3.141593 0 1 85.63517 50.26201 A0.492126 0.492126 3.141593 0 1 84.65092 50.26201" stroke-width="0.2" style="fill:none;stroke:black;" />
  </g>
  <g roomId="177332" roomName="Instruction 105">
    <path d="M136.6365 49.44115 L97.7208 49.44115 L97.7208 76.05368 L136.6365 76.05368 L136.6365 49.44115" stroke-width="0.2" style="fill:none;stroke:black;" />
    <path d="M127.3176 74.26201 A0.492126 0.492126 3.141593 0 1 128.3018 74.26201 A0.492126 0.492126 3.141593 0 1 127.3176 74.26201" stroke-width="0.2" style="fill:none;stroke:black;" />
    <path d="M127.3176 50.26201 A0.492126 0.492126 3.141593 0 1 128.3018 50.26201 A0.492126 0.492126 3.141593 0 1 127.3176 50.26201" stroke-width="0.2" style="fill:none;stroke:black;" />
    <path d="M105.9843 74.26201 A0.492126 0.492126 3.141593 0 1 106.9685 74.26201 A0.492126 0.492126 3.141593 0 1 105.9843 74.26201" stroke-width="0.2" style="fill:none;stroke:black;" />
    <path d="M105.9843 50.26201 A0.492126 0.492126 3.141593 0 1 106.9685 50.26201 A0.492126 0.492126 3.141593 0 1 105.9843 50.26201" stroke-width="0.2" style="fill:none;stroke:black;" />
  </g>
  <g roomId="177333" roomName="Instruction 104">
    <path d="M156.3215 49.44115 L137.0909 49.44115 L137.0909 76.05368 L156.3215 76.05368 L156.3215 49.44115" stroke-width="0.2" style="fill:none;stroke:black;" />
    <path d="M148.6509 74.26201 A0.492126 0.492126 3.141593 0 1 149.6352 74.26201 A0.492126 0.492126 3.141593 0 1 148.6509 74.26201" stroke-width="0.2" style="fill:none;stroke:black;" />
    <path d="M148.6509 50.26201 A0.492126 0.492126 3.141593 0 1 149.6352 50.26201 A0.492126 0.492126 3.141593 0 1 148.6509 50.26201" stroke-width="0.2" style="fill:none;stroke:black;" />
  </g>
  <g roomId="177334" roomName="Conference 103">
    <path d="M175.622 49.44115 L156.7759 49.44115 L156.7759 76.05368 L175.622 76.05368 L175.622 52.5276 L175.622 51.92064 L175.622 49.44115" stroke-width="0.2" style="fill:none;stroke:black;" />
  </g>
  <g roomId="177335" roomName="Stair 132">
    <path d="M184.9396 76.05368 L184.9396 52.5276 L176.2781 52.5276 L176.2781 76.05368 L184.9396 76.05368" stroke-width="0.2" style="fill:none;stroke:black;" />
  </g>
</svg>