<?xml version="1.0" encoding="utf-8"?>
<!DOCTYPE svg PUBLIC "-//W3C//DTD SVG 1.1//EN" "http://www.w3.org/Graphics/SVG/1.1/DTD/svg11.dtd">
<svg width="236.8139" height="196.0939" viewBox="-41.87434, -110.0051, 236.8139, 196.0939" xmlns="http://www.w3.org/2000/svg" xmlns:xlink="http://www.w3.org/1999/xlink" xmlns:xml="http://www.w3.org/XML/1998/namespace" version="1.1">
  <g roomId="215241" roomName="Stair 301">
    <path d="M184.9396 76.38176 L184.9396 52.51119 L176.2781 52.51119 L176.2781 76.05368 L176.2781 76.38176 L184.9396 76.38176" stroke-width="0.2" style="fill:none;stroke:black;" />
  </g>
  <g roomId="215247" roomName="Instruction 302">
    <path d="M175.622 76.05368 L175.622 52.51119 L175.622 51.92064 L175.622 49.44115 L143.6526 49.44115 L143.6526 76.05368 L175.622 76.05368" stroke-width="0.2" style="fill:none;stroke:black;" />
    <path d="M148.6509 74.26201 A0.492126 0.492126 3.141593 0 1 149.6352 74.26201 A0.492126 0.492126 3.141593 0 1 148.6509 74.26201" stroke-width="0.2" style="fill:none;stroke:black;" />
    <path d="M148.6509 50.26201 A0.492126 0.492126 3.141593 0 1 149.6352 50.26201 A0.492126 0.492126 3.141593 0 1 148.6509 50.26201" stroke-width="0.2" style="fill:none;stroke:black;" />
  </g>
  <g roomId="215249" roomName="Instruction 303">
    <path d="M143.1982 49.44115 L117.4058 49.44115 L117.4058 76.05368 L143.1982 76.05368 L143.1982 49.44115" stroke-width="0.2" style="fill:none;stroke:black;" />
    <path d="M127.3176 74.26201 A0.492126 0.492126 3.141593 0 1 128.3018 74.26201 A0.492126 0.492126 3.141593 0 1 127.3176 74.26201" stroke-width="0.2" style="fill:none;stroke:black;" />
    <path d="M127.3176 50.26201 A0.492126 0.492126 3.141593 0 1 128.3018 50.26201 A0.492126 0.492126 3.141593 0 1 127.3176 50.26201" stroke-width="0.2" style="fill:none;stroke:black;" />
  </g>
  <g roomId="216393" roomName="Instruction 304">
    <path d="M116.9514 49.44115 L97.7208 49.44115 L97.7208 76.05368 L116.9514 76.05368 L116.9514 49.44115" stroke-width="0.2" style="fill:none;stroke:black;" />
    <path d="M105.9843 74.26201 A0.492126 0.492126 3.141593 0 1 106.9685 74.26201 A0.492126 0.492126 3.141593 0 1 105.9843 74.26201" stroke-width="0.2" style="fill:none;stroke:black;" />
    <path d="M105.9843 50.26201 A0.492126 0.492126 3.141593 0 1 106.9685 50.26201 A0.492126 0.492126 3.141593 0 1 105.9843 50.26201" stroke-width="0.2" style="fill:none;stroke:black;" />
  </g>
  <g roomId="216413" roomName="Instruction 305">
    <path d="M97.2664 49.44115 L71.47408 49.44115 L71.47408 76.05368 L97.2664 76.05368 L97.2664 49.44115" stroke-width="0.2" style="fill:none;stroke:black;" />
    <path d="M84.65092 74.26201 A0.492126 0.492126 3.141593 0 1 85.63517 74.26201 A0.492126 0.492126 3.141593 0 1 84.65092 74.26201" stroke-width="0.2" style="fill:none;stroke:black;" />
    <path d="M84.65092 50.26201 A0.492126 0.492126 3.141593 0 1 85.63517 50.26201 A0.492126 0.492126 3.141593 0 1 84.65092 50.26201" stroke-width="0.2" style="fill:none;stroke:black;" />
  </g>
  <g roomId="216415" roomName="Instruction 306">
    <path d="M41.71933 50.16393 L41.99413 50.16393 A0.492126 0.492126 2.940937 0 1 42.96851 50.26201 A0.492126 0.492126 2.940937 0 1 41.99413 50.3601 L41.71933 50.3601 L41.71933 56.80909 L41.71933 74.16393 L41.99413 74.16393 A0.492126 0.492126 2.940937 0 1 42.96851 74.26201 A0.492126 0.492126 2.940937 0 1 41.99413 74.3601 L41.71933 74.3601 L41.71933 76.05368 L71.01968 76.05368 L71.01968 49.44115 L41.71933 49.44115 L41.71933 50.16393" stroke-width="0.2" style="fill:none;stroke:black;" />
    <path d="M63.31759 74.26201 A0.492126 0.492126 3.141593 0 1 64.30184 74.26201 A0.492126 0.492126 3.141593 0 1 63.31759 74.26201" stroke-width="0.2" style="fill:none;stroke:black;" />
    <path d="M63.31759 50.26201 A0.492126 0.492126 3.141593 0 1 64.30184 50.26201 A0.492126 0.492126 3.141593 0 1 63.31759 50.26201" stroke-width="0.2" style="fill:none;stroke:black;" />
  </g>
  <g roomId="216417" roomName="Men 307">
    <path d="M33.83776 76.05368 L41.26493 76.05368 L41.26493 74.3601 L41.26493 74.16393 L41.26493 57.03629 L35.9147 57.03629 L33.83776 57.03629 L33.83776 76.05368" stroke-width="0.2" style="fill:none;stroke:black;" />
  </g>
  <g roomId="216419" roomName="Women 308">
    <path d="M23.99525 76.05368 L31.74295 76.05368 L31.74295 57.03629 L29.34548 57.03629 L23.99525 57.03629 L23.99525 76.05368" stroke-width="0.2" style="fill:none;stroke:black;" />
  </g>
  <g roomId="216421" roomName="Lounge 309">
    <path d="M4.770999 76.05368 L23.54085 76.05368 L23.54085 57.03629 L12.41782 57.03629 L12.41782 49.44115 L4.770999 49.44115 L4.770999 51.88783 L4.770999 52.51119 L4.770999 76.05368" stroke-width="0.2" style="fill:none;stroke:black;" />
    <path d="M21.31759 74.26201 A0.492126 0.492126 3.141593 0 1 22.30184 74.26201 A0.492126 0.492126 3.141593 0 1 21.31759 74.26201" stroke-width="0.2" style="fill:none;stroke:black;" />
  </g>
  <g roomId="216423" roomName="Electrical 310">
    <path d="M23.52199 49.44115 L12.87221 49.44115 L12.87221 56.58189 L23.54085 56.58189 L23.54085 49.44115 L23.52199 49.44115" stroke-width="0.2" style="fill:none;stroke:black;" />
    <path d="M21.31759 50.26201 A0.492126 0.492126 3.141593 0 1 22.30184 50.26201 A0.492126 0.492126 3.141593 0 1 21.31759 50.26201" stroke-width="0.2" style="fill:none;stroke:black;" />
  </g>
  <g roomId="216433" roomName="Stair 312">
    <path d="M-4.546586 52.51119 L-4.546586 76.05368 L4.114831 76.05368 L4.114831 52.51119 L-4.546586 52.51119" stroke-width="0.2" style="fill:none;stroke:black;" />
  </g>
  <g roomId="216438" roomName="Instruction 313">
    <path d="M-5.202754 51.88783 L-5.202754 48.98675 L-5.202754 45.30434 L-31.81529 45.30434 L-31.81529 76.05368 L-5.202754 76.05368 L-5.202754 52.51119 L-5.202754 51.88783" stroke-width="0.2" style="fill:none;stroke:black;" />
    <path d="M-6.682413 74.26201 A0.492126 0.492126 3.141593 0 1 -5.698161 74.26201 A0.492126 0.492126 3.141593 0 1 -6.682413 74.26201" stroke-width="0.2" style="fill:none;stroke:black;" />
    <path d="M-6.682413 50.26201 A0.492126 0.492126 3.141593 0 1 -5.698161 50.26201 A0.492126 0.492126 3.141593 0 1 -6.682413 50.26201" stroke-width="0.2" style="fill:none;stroke:black;" />
    <path d="M-30.68241 74.26201 A0.492126 0.492126 3.141593 0 1 -29.69816 74.26201 A0.492126 0.492126 3.141593 0 1 -30.68241 74.26201" stroke-width="0.2" style="fill:none;stroke:black;" />
    <path d="M-30.68241 50.26201 A0.492126 0.492126 3.141593 0 1 -29.69816 50.26201 A0.492126 0.492126 3.141593 0 1 -30.68241 50.26201" stroke-width="0.2" style="fill:none;stroke:black;" />
  </g>
  <g roomId="216440" roomName="Instruction 314">
    <path d="M-5.202754 44.84994 L-5.202754 12.49594 L-31.81529 12.49594 L-31.81529 44.84994 L-5.202754 44.84994" stroke-width="0.2" style="fill:none;stroke:black;" />
    <path d="M-6.682413 39.59534 A0.492126 0.492126 3.141593 0 1 -5.698161 39.59534 A0.492126 0.492126 3.141593 0 1 -6.682413 39.59534" stroke-width="0.2" style="fill:none;stroke:black;" />
    <path d="M-6.682413 18.92868 A0.492126 0.492126 3.141593 0 1 -5.698161 18.92868 A0.492126 0.492126 3.141593 0 1 -6.682413 18.92868" stroke-width="0.2" style="fill:none;stroke:black;" />
    <path d="M-30.68241 39.59534 A0.492126 0.492126 3.141593 0 1 -29.69816 39.59534 A0.492126 0.492126 3.141593 0 1 -30.68241 39.59534" stroke-width="0.2" style="fill:none;stroke:black;" />
    <path d="M-30.68241 18.92868 A0.492126 0.492126 3.141593 0 1 -29.69816 18.92868 A0.492126 0.492126 3.141593 0 1 -30.68241 18.92868" stroke-width="0.2" style="fill:none;stroke:black;" />
  </g>
  <g roomId="216442" roomName="Instruction 315">
    <path d="M-5.202754 12.04154 L-5.202754 -7.416301 L-23.67634 -7.416301 L-31.81529 -7.416301 L-31.81529 12.04154 L-5.202754 12.04154" stroke-width="0.2" style="fill:none;stroke:black;" />
    <path d="M-6.682413 -1.737988 A0.492126 0.492126 3.141593 0 1 -5.698161 -1.737988 A0.492126 0.492126 3.141593 0 1 -6.682413 -1.737988" stroke-width="0.2" style="fill:none;stroke:black;" />
    <path d="M-30.68241 -1.737988 A0.492126 0.492126 3.141593 0 1 -29.69816 -1.737988 A0.492126 0.492126 3.141593 0 1 -30.68241 -1.737988" stroke-width="0.2" style="fill:none;stroke:black;" />
  </g>
  <g roomId="216444" roomName="Storage 316">
    <path d="M-31.81529 -17.25882 L-31.81529 -7.870697 L-23.90354 -7.870697 L-23.90354 -17.25882 L-31.81529 -17.25882" stroke-width="0.2" style="fill:none;stroke:black;" />
  </g>
  <g roomId="216446" roomName="Electrical 317">
    <path d="M-5.202754 -7.870697 L-5.202754 -17.25882 L-23.44914 -17.25882 L-23.44914 -7.870697 L-5.202754 -7.870697" stroke-width="0.2" style="fill:none;stroke:black;" />
  </g>
  <g roomId="216455" roomName="Lobby 318">
    <path d="M-4.748358 48.98675 L-4.546586 48.98675 L-4.546586 51.88783 L4.114831 51.88783 L4.114831 48.98675 L12.64501 48.98675 L23.52199 48.98675 L23.52199 40.76758 L23.38878 40.76758 L23.38878 22.29777 L21.15355 22.29777 L21.15355 21.55958 L23.38878 21.55958 L23.38878 2.631105 L21.15355 2.631105 L21.15355 1.892916 L23.38878 1.892916 L23.38878 -32.1458 L21.15355 -32.1458 L21.15355 -32.88399 L23.38878 -32.88399 L23.38878 -57.61496 L21.15355 -57.61496 L21.15355 -58.35315 L23.38878 -58.35315 L23.38878 -64.69501 L23.52199 -64.69501 L23.52199 -72.78885 L23.11188 -72.78885 L5.405514 -72.78885 L-4.748358 -72.78885 L-4.748358 -57.61496 L-4.748358 -35.85872 L-4.748358 -17.48602 L-4.748358 -7.643499 L-4.748358 12.26874 L-4.748358 45.07714 L-4.748358 48.98675" stroke-width="0.2" style="fill:none;stroke:black;" />
    <path d="M21.31759 4.637012 A0.492126 0.492126 3.141593 0 1 22.30184 4.637012 A0.492126 0.492126 3.141593 0 1 21.31759 4.637012" stroke-width="0.2" style="fill:none;stroke:black;" />
    <path d="M21.31759 39.59534 A0.492126 0.492126 3.141593 0 1 22.30184 39.59534 A0.492126 0.492126 3.141593 0 1 21.31759 39.59534" stroke-width="0.2" style="fill:none;stroke:black;" />
    <path d="M21.31759 18.92868 A0.492126 0.492126 3.141593 0 1 22.30184 18.92868 A0.492126 0.492126 3.141593 0 1 21.31759 18.92868" stroke-width="0.2" style="fill:none;stroke:black;" />
    <path d="M21.31759 -1.737988 A0.492126 0.492126 3.141593 0 1 22.30184 -1.737988 A0.492126 0.492126 3.141593 0 1 21.31759 -1.737988" stroke-width="0.2" style="fill:none;stroke:black;" />
    <path d="M21.31759 -22.40465 A0.492126 0.492126 3.141593 0 1 22.30184 -22.40465 A0.492126 0.492126 3.141593 0 1 21.31759 -22.40465" stroke-width="0.2" style="fill:none;stroke:black;" />
    <path d="M21.31759 -43.07132 A0.492126 0.492126 3.141593 0 1 22.30184 -43.07132 A0.492126 0.492126 3.141593 0 1 21.31759 -43.07132" stroke-width="0.2" style="fill:none;stroke:black;" />
    <path d="M21.31759 -63.73799 A0.492126 0.492126 3.141593 0 1 22.30184 -63.73799 A0.492126 0.492126 3.141593 0 1 21.31759 -63.73799" stroke-width="0.2" style="fill:none;stroke:black;" />
    <path d="M1.984254 39.59534 A0.492126 0.492126 3.141593 0 1 2.968506 39.59534 A0.492126 0.492126 3.141593 0 1 1.984254 39.59534" stroke-width="0.2" style="fill:none;stroke:black;" />
    <path d="M1.984254 18.92868 A0.492126 0.492126 3.141593 0 1 2.968506 18.92868 A0.492126 0.492126 3.141593 0 1 1.984254 18.92868" stroke-width="0.2" style="fill:none;stroke:black;" />
    <path d="M1.984254 -1.737988 A0.492126 0.492126 3.141593 0 1 2.968506 -1.737988 A0.492126 0.492126 3.141593 0 1 1.984254 -1.737988" stroke-width="0.2" style="fill:none;stroke:black;" />
    <path d="M1.984254 -22.40465 A0.492126 0.492126 3.141593 0 1 2.968506 -22.40465 A0.492126 0.492126 3.141593 0 1 1.984254 -22.40465" stroke-width="0.2" style="fill:none;stroke:black;" />
    <path d="M1.984254 -43.07132 A0.492126 0.492126 3.141593 0 1 2.968506 -43.07132 A0.492126 0.492126 3.141593 0 1 1.984254 -43.07132" stroke-width="0.2" style="fill:none;stroke:black;" />
    <path d="M1.984254 -63.73799 A0.492126 0.492126 3.141593 0 1 2.968506 -63.73799 A0.492126 0.492126 3.141593 0 1 1.984254 -63.73799" stroke-width="0.2" style="fill:none;stroke:black;" />
  </g>
  <g roomId="216457" roomName="Media Review 319">
    <path d="M-31.81529 -35.63152 L-31.81529 -17.71322 L-23.67634 -17.71322 L-5.202754 -17.71322 L-5.202754 -35.63152 L-31.81529 -35.63152" stroke-width="0.2" style="fill:none;stroke:black;" />
    <path d="M-6.682413 -22.40465 A0.492126 0.492126 3.141593 0 1 -5.698161 -22.40465 A0.492126 0.492126 3.141593 0 1 -6.682413 -22.40465" stroke-width="0.2" style="fill:none;stroke:black;" />
    <path d="M-30.68241 -22.40465 A0.492126 0.492126 3.141593 0 1 -29.69816 -22.40465 A0.492126 0.492126 3.141593 0 1 -30.68241 -22.40465" stroke-width="0.2" style="fill:none;stroke:black;" />
  </g>
  <g roomId="216459" roomName="Media Review 320">
    <path d="M-31.81529 -57.38776 L-31.81529 -36.08592 L-5.202754 -36.08592 L-5.202754 -57.38776 L-31.81529 -57.38776" stroke-width="0.2" style="fill:none;stroke:black;" />
    <path d="M-6.682413 -43.07132 A0.492126 0.492126 3.141593 0 1 -5.698161 -43.07132 A0.492126 0.492126 3.141593 0 1 -6.682413 -43.07132" stroke-width="0.2" style="fill:none;stroke:black;" />
    <path d="M-30.68241 -43.07132 A0.492126 0.492126 3.141593 0 1 -29.69816 -43.07132 A0.492126 0.492126 3.141593 0 1 -30.68241 -43.07132" stroke-width="0.2" style="fill:none;stroke:black;" />
  </g>
  <g roomId="216461" roomName="Open Office 321">
    <path d="M-31.81529 -73.76408 L-32.14337 -73.76408 L-32.14337 -73.26703 L-31.81529 -73.26703 L-31.81529 -57.84216 L-5.202754 -57.84216 L-5.202754 -73.24324 L5.178316 -73.24324 L5.178316 -100.0051 L-31.81529 -100.0051 L-31.81529 -73.76408" stroke-width="0.2" style="fill:none;stroke:black;" />
    <path d="M-6.682413 -63.73799 A0.492126 0.492126 3.141593 0 1 -5.698161 -63.73799 A0.492126 0.492126 3.141593 0 1 -6.682413 -63.73799" stroke-width="0.2" style="fill:none;stroke:black;" />
    <path d="M-6.682413 -74.40466 A0.492126 0.492126 3.141593 0 1 -5.698161 -74.40466 A0.492126 0.492126 3.141593 0 1 -6.682413 -74.40466" stroke-width="0.2" style="fill:none;stroke:black;" />
    <path d="M-6.682413 -98.40466 A0.492126 0.492126 3.141593 0 1 -5.698161 -98.40466 A0.492126 0.492126 3.141593 0 1 -6.682413 -98.40466" stroke-width="0.2" style="fill:none;stroke:black;" />
    <path d="M1.984254 -74.40466 A0.492126 0.492126 3.141593 0 1 2.968506 -74.40466 A0.492126 0.492126 3.141593 0 1 1.984254 -74.40466" stroke-width="0.2" style="fill:none;stroke:black;" />
    <path d="M1.984254 -98.40466 A0.492126 0.492126 3.141593 0 1 2.968506 -98.40466 A0.492126 0.492126 3.141593 0 1 1.984254 -98.40466" stroke-width="0.2" style="fill:none;stroke:black;" />
    <path d="M-30.68241 -63.73799 A0.492126 0.492126 3.141593 0 1 -29.69816 -63.73799 A0.492126 0.492126 3.141593 0 1 -30.68241 -63.73799" stroke-width="0.2" style="fill:none;stroke:black;" />
    <path d="M-30.68241 -74.40466 A0.492126 0.492126 3.141593 0 1 -29.69816 -74.40466 A0.492126 0.492126 3.141593 0 1 -30.68241 -74.40466" stroke-width="0.2" style="fill:none;stroke:black;" />
    <path d="M-30.68241 -98.40466 A0.492126 0.492126 3.141593 0 1 -29.69816 -98.40466 A0.492126 0.492126 3.141593 0 1 -30.68241 -98.40466" stroke-width="0.2" style="fill:none;stroke:black;" />
  </g>
  <g roomId="216463" roomName="Administration 322">
    <path d="M31.63829 -100.0051 L21.80971 -100.0051 L5.632712 -100.0051 L5.632712 -73.24324 L22.88468 -73.24324 L22.88468 -80.96306 L31.63829 -80.96306 L31.63829 -100.0051" stroke-width="0.2" style="fill:none;stroke:black;" />
    <path d="M21.31759 -74.40466 A0.492126 0.492126 3.141593 0 1 22.30184 -74.40466 A0.492126 0.492126 3.141593 0 1 21.31759 -74.40466" stroke-width="0.2" style="fill:none;stroke:black;" />
    <path d="M21.31759 -98.40466 A0.492126 0.492126 3.141593 0 1 22.30184 -98.40466 A0.492126 0.492126 3.141593 0 1 21.31759 -98.40466" stroke-width="0.2" style="fill:none;stroke:black;" />
  </g>
  <g roomId="216465" roomName="Electrical 323">
    <path d="M23.52199 -73.24324 L31.63829 -73.24324 L31.63829 -80.50867 L23.33908 -80.50867 L23.33908 -73.24324 L23.52199 -73.24324" stroke-width="0.2" style="fill:none;stroke:black;" />
  </g>
  <g roomId="216467" roomName="Advisors 324">
    <path d="M52.30758 -100.0051 L32.09269 -100.0051 L32.09269 -80.73586 L32.09269 -73.24324 L52.30758 -73.24324 L52.30758 -100.0051" stroke-width="0.2" style="fill:none;stroke:black;" />
    <path d="M41.98425 -74.40466 A0.492126 0.492126 3.141593 0 1 42.96851 -74.40466 A0.492126 0.492126 3.141593 0 1 41.98425 -74.40466" stroke-width="0.2" style="fill:none;stroke:black;" />
    <path d="M41.98425 -98.40466 A0.492126 0.492126 3.141593 0 1 42.96851 -98.40466 A0.492126 0.492126 3.141593 0 1 41.98425 -98.40466" stroke-width="0.2" style="fill:none;stroke:black;" />
  </g>
  <g roomId="216478" roomName="Conference 325">
    <path d="M79.95046 -100.0051 L52.76198 -100.0051 L52.76198 -73.24324 L69.36795 -73.24324 L69.36795 -80.96306 L78.31004 -80.96306 L79.95046 -80.96306 L79.95046 -100.0051" stroke-width="0.2" style="fill:none;stroke:black;" />
    <path d="M63.31759 -74.40466 A0.492126 0.492126 3.141593 0 1 64.30184 -74.40466 A0.492126 0.492126 3.141593 0 1 63.31759 -74.40466" stroke-width="0.2" style="fill:none;stroke:black;" />
    <path d="M63.31759 -98.40466 A0.492126 0.492126 3.141593 0 1 64.30184 -98.40466 A0.492126 0.492126 3.141593 0 1 63.31759 -98.40466" stroke-width="0.2" style="fill:none;stroke:black;" />
  </g>
  <g roomId="216480" roomName="Toilet 326">
    <path d="M69.82234 -73.24324 L78.08284 -73.24324 L78.08284 -80.50867 L69.82234 -80.50867 L69.82234 -73.24324" stroke-width="0.2" style="fill:none;stroke:black;" />
  </g>
  <g roomId="216482" roomName="Stair 327">
    <path d="M80.60663 -100.3331 L80.60663 -80.73586 L80.60663 -76.84807 L89.26804 -76.84807 L89.26804 -100.3331 L80.60663 -100.3331" stroke-width="0.2" style="fill:none;stroke:black;" />
  </g>
  <g roomId="216484" roomName="Corridor 328">
    <path d="M80.60663 -76.1919 L80.60663 -72.78885 L78.31004 -72.78885 L69.59515 -72.78885 L52.53478 -72.78885 L31.86549 -72.78885 L23.52199 -72.78885 L23.52199 -64.69501 L89.26804 -64.69501 L89.26804 -73.29082 L89.26804 -76.1919 L80.60663 -76.1919" stroke-width="0.2" style="fill:none;stroke:black;" />
  </g>
</svg>